
<svg width="401" height="512" viewBox="0 0 401 512" fill="none" xmlns="http://www.w3.org/2000/svg">
<path d="M399.9 255.8L387 413.1C383.7 453.8 323.1 448.2 326.4 408.2L336.4 285.7L295.3 288C305.4 308.7 311.1 331.9 311.1 356.5C311.1 397.7 295 435.2 268.8 463L229.5 423.7C287.4 360 242.6 256.5 155.5 256.5C129.6 256.5 106 266.4 88.3 282.5L49 243.2C71 222.5 99.1 208.1 130.4 203L205.7 117.3L163.1 92.5L111.5 138.5C81.5 165.3 40.9 120 71 93.1L139 32.4C148.8 23.6 163.1 22.2 174.5 28.8C174.5 28.8 313.8 109.7 314 109.9C330.2 120 334.7 145.9 320.1 162.5L261.7 229L367.8 223.1C386.3 222 401.4 237.5 399.9 255.8ZM335 101.8C363.1 101.8 385.9 79 385.9 50.9C385.9 22.8 363.1 0 335 0C306.9 0 284.1 22.8 284.1 50.9C284.1 79 306.9 101.8 335 101.8V101.8ZM155.6 456.5C75 456.5 28.2 365.9 72.9 300.4L33.2 260.7C12.4 287 0 320.3 0 356.4C0 487.1 150.7 557.8 251.4 478.9L211.7 439.2C195.7 450.1 176.4 456.5 155.6 456.5Z" fill="white"/>
</svg>